# xmcd
#
# Track frame offsets:
#	150
#	63972
#	88113
#	93163
#	140536
#
# Disc length: 3115 seconds
#
# Revision: 1
# Processed by: cddbd v1.5.2PL0 Copyright (c) Steve Scherf et al.
# Submitted via: audiograbber 1.83.01
#
DISCID=3a0c2905
DTITLE=Grateful Dead - 69-01-25 Avalon Ballroom, San Francisco CA
DYEAR=1900
DGENRE=
TTITLE0=Dark Star
TTITLE1=St Stephen
TTITLE2=William Tell
TTITLE3=The Eleven
TTITLE4=Turn On Your Lovelight
EXTD=
EXTT0=
EXTT1=
EXTT2=
EXTT3=
EXTT4=
PLAYORDER=
